<svg xmlns="http://www.w3.org/2000/svg" width="831" height="708" viewBox="0 0 831 708">
  <g id="グループ_325" data-name="グループ 325" transform="translate(-246 -4328)">
    <g id="グループ_324" data-name="グループ 324" transform="translate(0 25)">
      <rect id="長方形_212" data-name="長方形 212" width="107" height="85" transform="translate(325 4488)" fill="#fef4ce"/>
      <rect id="長方形_201" data-name="長方形 201" width="107" height="199" transform="translate(325 4577)" fill="#f0f7d6"/>
      <path id="パス_33" data-name="パス 33" d="M0,0H150V311H0Z" transform="translate(475 4465)" fill="#f0f7d6"/>
      <path id="パス_29" data-name="パス 29" d="M0,0H39.405V39.522H0Z" transform="translate(249 4447)" fill="#f0f7d6"/>
      <path id="パス_28" data-name="パス 28" d="M0,0H72.864V71H0Z" transform="translate(249 4376)" fill="#f0f7d6"/>
      <rect id="長方形_199" data-name="長方形 199" width="119" height="71" transform="translate(319 4376)" fill="#d6f3f7"/>
      <rect id="長方形_198" data-name="長方形 198" width="67" height="53" transform="translate(438 4376)" fill="#f0f7d6"/>
      <rect id="長方形_197" data-name="長方形 197" width="125" height="89" transform="translate(505 4376)" fill="#f0f7d6"/>
      <g id="グループ_277" data-name="グループ 277" transform="translate(-18 10)">
        <g id="グループ_253" data-name="グループ 253" transform="translate(-2)">
          <rect id="長方形_104" data-name="長方形 104" width="383" height="8" transform="translate(266 4364)" fill="#212121"/>
        </g>
        <g id="グループ_254" data-name="グループ 254" transform="translate(-19)">
          <rect id="長方形_108" data-name="長方形 108" width="8" height="116" transform="translate(283 4364)" fill="#212121"/>
        </g>
        <path id="合体_1" data-name="合体 1" d="M-671,7052V6681h8v363h75v8Z" transform="translate(935 -2201)" fill="#212121"/>
        <rect id="長方形_108-2" data-name="長方形 108" width="8" height="77" transform="translate(336 4364)" fill="#212121"/>
        <rect id="長方形_110" data-name="長方形 110" width="8" height="77" transform="translate(451 4364)" fill="#212121"/>
        <rect id="長方形_111" data-name="長方形 111" width="8" height="55" transform="translate(520 4366)" fill="#212121"/>
        <rect id="長方形_112" data-name="長方形 112" width="8" height="183" transform="translate(640 4364)" fill="#212121"/>
        <rect id="長方形_113" data-name="長方形 113" width="8" height="47" transform="translate(302 4433)" fill="#212121"/>
        <g id="グループ_257" data-name="グループ 257" transform="translate(0 -8)">
          <rect id="長方形_114" data-name="長方形 114" width="8" height="123" transform="translate(459 4441) rotate(90)" fill="#212121"/>
        </g>
        <rect id="長方形_117" data-name="長方形 117" width="8" height="27" transform="translate(337 4433) rotate(90)" fill="#212121"/>
        <g id="グループ_258" data-name="グループ 258" transform="translate(123 -28)">
          <rect id="長方形_114-2" data-name="長方形 114" width="8" height="69" transform="translate(405 4441) rotate(90)" fill="#212121"/>
        </g>
        <rect id="長方形_118" data-name="長方形 118" width="8" height="31.649" transform="translate(528 4451.649) rotate(180)" fill="#212121"/>
        <rect id="長方形_119" data-name="長方形 119" width="8" height="31.5" transform="translate(341 4472) rotate(90)" fill="#212121"/>
        <g id="グループ_259" data-name="グループ 259" transform="translate(181 9)">
          <rect id="長方形_114-3" data-name="長方形 114" width="8" height="150" transform="translate(459 4441) rotate(90)" fill="#212121"/>
        </g>
        <path id="合体_2" data-name="合体 2" d="M-640.608,6806.024v-1.192L-671,6682.936l7.762-1.935,29.177,117.022H-594v8Z" transform="translate(1011 -1824.762)" fill="#212121"/>
        <rect id="長方形_121" data-name="長方形 121" width="8" height="321" transform="translate(490 4452)" fill="#212121"/>
        <g id="グループ_260" data-name="グループ 260" transform="translate(181 324)">
          <rect id="長方形_114-4" data-name="長方形 114" width="8" height="150" transform="translate(459 4441) rotate(90)" fill="#212121"/>
        </g>
        <rect id="長方形_122" data-name="長方形 122" width="8" height="95" transform="translate(640 4739)" fill="#212121"/>
        <g id="グループ_263" data-name="グループ 263" transform="translate(31.361 410)">
          <rect id="長方形_114-5" data-name="長方形 114" width="8" height="300" transform="translate(608.638 4441) rotate(90)" fill="#212121"/>
        </g>
        <rect id="長方形_124" data-name="長方形 124" width="8" height="95" transform="translate(340 4756)" fill="#212121"/>
        <rect id="長方形_125" data-name="長方形 125" width="8" height="143" transform="translate(340 4472)" fill="#212121"/>
        <rect id="長方形_126" data-name="長方形 126" width="8" height="151" transform="translate(348 4765) rotate(180)" fill="#212121"/>
        <g id="グループ_264" data-name="グループ 264" transform="translate(31 323)">
          <rect id="長方形_114-6" data-name="長方形 114" width="8" height="117" transform="translate(426 4441) rotate(90)" fill="#212121"/>
        </g>
        <rect id="長方形_127" data-name="長方形 127" width="8" height="292" transform="translate(449 4472)" fill="#212121"/>
        <g id="グループ_265" data-name="グループ 265" transform="translate(12 31)">
          <rect id="長方形_114-7" data-name="長方形 114" width="8" height="108" transform="translate(444 4441) rotate(90)" fill="#212121"/>
        </g>
        <g id="グループ_266" data-name="グループ 266" transform="translate(11 120)">
          <rect id="長方形_114-8" data-name="長方形 114" width="8" height="108" transform="translate(444 4441) rotate(90)" fill="#212121"/>
        </g>
        <g id="グループ_267" data-name="グループ 267" transform="translate(44 358)">
          <rect id="長方形_114-9" data-name="長方形 114" width="8" height="52" transform="translate(385 4443) rotate(90)" fill="#212121"/>
        </g>
        <g id="グループ_268" data-name="グループ 268" transform="translate(-3950.794 3721.992) rotate(-71)">
          <rect id="長方形_114-10" data-name="長方形 114" width="8" height="55.667" transform="translate(388.667 4443) rotate(90)" fill="#212121"/>
        </g>
        <g id="長方形_134" data-name="長方形 134" transform="translate(429 4852.369) rotate(180)" fill="#fff" stroke="#212121" stroke-width="1">
          <rect width="13.25" height="43.499" stroke="none"/>
          <rect x="0.5" y="0.5" width="12.25" height="42.499" fill="none"/>
        </g>
        <g id="長方形_135" data-name="長方形 135" transform="translate(418 4852.369) rotate(180)" fill="#fff" stroke="#212121" stroke-width="1">
          <rect width="13.25" height="43.499" stroke="none"/>
          <rect x="0.5" y="0.5" width="12.25" height="42.499" fill="none"/>
        </g>
        <g id="長方形_136" data-name="長方形 136" transform="translate(406 4852.5) rotate(180)" fill="#fff" stroke="#212121" stroke-width="1">
          <rect width="13.25" height="43.499" stroke="none"/>
          <rect x="0.5" y="0.5" width="12.25" height="42.499" fill="none"/>
        </g>
        <g id="長方形_137" data-name="長方形 137" transform="translate(394 4852.5) rotate(180)" fill="#fff" stroke="#212121" stroke-width="1">
          <rect width="13.25" height="43.499" stroke="none"/>
          <rect x="0.5" y="0.5" width="12.25" height="42.499" fill="none"/>
        </g>
        <g id="グループ_269" data-name="グループ 269" transform="translate(-71 31)">
          <rect id="長方形_114-11" data-name="長方形 114" width="8" height="37" transform="translate(373 4441) rotate(90)" fill="#212121"/>
        </g>
        <rect id="長方形_139" data-name="長方形 139" width="8" height="195" transform="translate(648 4739) rotate(180)" fill="#212121"/>
        <rect id="長方形_142" data-name="長方形 142" width="8" height="91.25" transform="translate(535 4905.5) rotate(90)" fill="#212121"/>
        <rect id="長方形_143" data-name="長方形 143" width="8" height="61" transform="translate(443.75 4852.5)" fill="#212121"/>
        <rect id="長方形_144" data-name="長方形 144" width="8" height="61" transform="translate(527 4852.5)" fill="#212121"/>
        <g id="長方形_147" data-name="長方形 147" transform="translate(391 4771)" fill="#212121" stroke="#212121" stroke-width="1">
          <rect width="8" height="31" stroke="none"/>
          <rect x="0.5" y="0.5" width="7" height="30" fill="none"/>
        </g>
        <g id="長方形_152" data-name="長方形 152" transform="translate(416 4942)" fill="none" stroke="#212121" stroke-width="1">
          <rect width="228" height="45" stroke="none"/>
          <rect x="0.5" y="0.5" width="227" height="44" fill="none"/>
        </g>
        <text id="控室C" transform="translate(302 4411)" fill="#212121" font-size="16" font-family="HiraginoSans-W6, Hiragino Sans"><tspan x="-21.777" y="0">控室</tspan><tspan y="0" font-family="Helvetica-Bold, Helvetica" font-weight="700">C</tspan></text>
        <text id="トイレ_女_" data-name="トイレ
（女）" transform="translate(369 4400)" fill="#212121" font-size="14" font-family="HiraginoSans-W6, Hiragino Sans"><tspan x="-21" y="0">トイレ</tspan><tspan y="0" font-family="Helvetica-Bold, Helvetica" font-weight="700"></tspan><tspan x="-21" y="17">（女）</tspan></text>
        <text id="トイレ_男_" data-name="トイレ
（男）" transform="translate(428 4400)" fill="#212121" font-size="14" font-family="HiraginoSans-W6, Hiragino Sans"><tspan x="-21" y="0">トイレ</tspan><tspan y="0" font-family="Helvetica-Bold, Helvetica" font-weight="700"></tspan><tspan x="-21" y="17">（男）</tspan></text>
        <text id="ペルソナ" transform="translate(490 4397)" fill="#212121" font-size="14" font-family="HiraginoSans-W6, Hiragino Sans"><tspan x="-27.72" y="0">ペルソナ</tspan></text>
        <text id="永安室" transform="translate(581 4420)" fill="#212121" font-size="16" font-family="HiraginoSans-W6, Hiragino Sans"><tspan x="-24" y="0">永安室</tspan></text>
        <text id="配膳室" transform="translate(399 4528)" fill="#212121" font-size="14" font-family="HiraginoSans-W6, Hiragino Sans"><tspan x="-21" y="0">配膳室</tspan></text>
        <text id="広間B" transform="translate(398 4673)" fill="#212121" font-size="16" font-family="HiraginoSans-W6, Hiragino Sans"><tspan x="-21.777" y="0">広間</tspan><tspan y="0" font-family="Helvetica-Bold, Helvetica" font-weight="700">B</tspan></text>
        <text id="ホールA" transform="translate(568 4637)" fill="#212121" font-size="16" font-family="HiraginoSans-W6, Hiragino Sans"><tspan x="-29.537" y="0">ホール</tspan><tspan y="0" font-family="Helvetica-Bold, Helvetica" font-weight="700">A</tspan></text>
        <text id="舞台" transform="translate(565 4518)" fill="#212121" font-size="16" font-family="HiraginoSans-W6, Hiragino Sans"><tspan x="-16" y="0">舞台</tspan></text>
        <text id="倉庫" transform="translate(369 4795)" fill="#212121" font-size="16" font-family="HiraginoSans-W6, Hiragino Sans"><tspan x="-16" y="0">倉庫</tspan></text>
        <text id="ロビー" transform="translate(559 4820)" fill="#212121" font-size="16" font-family="HiraginoSans-W6, Hiragino Sans"><tspan x="-23.36" y="0">ロビー</tspan></text>
        <text id="ポーチ" transform="translate(586 4902)" fill="#212121" font-size="16" font-family="HiraginoSans-W6, Hiragino Sans"><tspan x="-24" y="0">ポーチ</tspan></text>
        <text id="正面玄関" transform="translate(527 4970)" fill="#212121" font-size="16" font-family="HiraginoSans-W6, Hiragino Sans"><tspan x="-32" y="0">正面玄関</tspan></text>
        <path id="合体_7" data-name="合体 7" d="M-641,6720.5v0h72.5v-39h0v0h0v39H-641v0Zm-30-39h0Z" transform="translate(1167.5 -2189)" fill="none" stroke="#212121" stroke-width="1" stroke-dasharray="2 2"/>
        <rect id="長方形_210" data-name="長方形 210" width="8" height="77" transform="translate(396 4364)" fill="#212121"/>
        <g id="グループ_363" data-name="グループ 363" transform="translate(107 540)">
          <rect id="長方形_114-12" data-name="長方形 114" width="8" height="224" transform="translate(533 4441) rotate(90)" fill="#212121"/>
        </g>
        <g id="グループ_364" data-name="グループ 364" transform="translate(-3801 5298) rotate(-90)">
          <rect id="長方形_114-13" data-name="長方形 114" width="8" height="159" transform="translate(468 4441) rotate(90)" fill="#212121"/>
        </g>
        <g id="長方形_211" data-name="長方形 211" transform="translate(413 4973)" fill="#212121" stroke="#212121" stroke-width="1">
          <rect width="8" height="16" stroke="none"/>
          <rect x="0.5" y="0.5" width="7" height="15" fill="none"/>
        </g>
        <g id="グループ_365" data-name="グループ 365" transform="translate(-4028 5288.91) rotate(-90)">
          <rect id="長方形_114-14" data-name="長方形 114" width="8" height="122" transform="translate(430.91 4441) rotate(90)" fill="#212121"/>
        </g>
      </g>
    </g>
    <text id="_1階" data-name="1階" transform="translate(438 4346)" fill="#212121" font-size="20" font-family="Helvetica-Bold, Helvetica" font-weight="700"><tspan x="-15.562" y="0">1</tspan><tspan y="0" font-family="HiraginoSans-W6, Hiragino Sans" font-weight="400">階</tspan></text>
    <text id="_2階" data-name="2階" transform="translate(896 4346)" fill="#212121" font-size="20" font-family="Helvetica-Bold, Helvetica" font-weight="700"><tspan x="-15.562" y="0">2</tspan><tspan y="0" font-family="HiraginoSans-W6, Hiragino Sans" font-weight="400">階</tspan></text>
    <g id="グループ_323" data-name="グループ 323" transform="translate(-35 11)">
      <path id="パス_32" data-name="パス 32" d="M0,0H67V80.594H0Z" transform="translate(755 4750.693)" fill="#f0f7d6"/>
      <path id="パス_27" data-name="パス 27" d="M0,0H67V224.693H0Z" transform="translate(755 4526)" fill="#fef4ce"/>
      <rect id="長方形_196" data-name="長方形 196" width="67" height="116" transform="translate(755 4410)" fill="#d6f3f7"/>
      <rect id="長方形_195" data-name="長方形 195" width="256" height="94" transform="translate(848 4926)" fill="#f0f7d6"/>
      <rect id="長方形_194" data-name="長方形 194" width="201" height="400" transform="translate(903 4526)" fill="#f0f7d6"/>
      <rect id="長方形_193" data-name="長方形 193" width="207" height="112" transform="translate(897 4414)" fill="#f0f7d6"/>
      <g id="グループ_322" data-name="グループ 322">
        <g id="グループ_321" data-name="グループ 321" transform="translate(-44 30)">
          <g id="グループ_309" data-name="グループ 309">
            <g id="長方形_170" data-name="長方形 170" transform="translate(940 4348)" fill="none" stroke="#212121" stroke-width="1">
              <rect width="145" height="30" stroke="none"/>
              <rect x="0.5" y="0.5" width="144" height="29" fill="none"/>
            </g>
            <g id="長方形_172" data-name="長方形 172" transform="translate(1052 4348)" fill="none" stroke="#212121" stroke-width="1">
              <rect width="17" height="30" stroke="none"/>
              <rect x="0.5" y="0.5" width="16" height="29" fill="none"/>
            </g>
            <g id="長方形_173" data-name="長方形 173" transform="translate(1036 4348)" fill="none" stroke="#212121" stroke-width="1">
              <rect width="17" height="30" stroke="none"/>
              <rect x="0.5" y="0.5" width="16" height="29" fill="none"/>
            </g>
            <g id="長方形_174" data-name="長方形 174" transform="translate(1020 4348)" fill="none" stroke="#212121" stroke-width="1">
              <rect width="17" height="30" stroke="none"/>
              <rect x="0.5" y="0.5" width="16" height="29" fill="none"/>
            </g>
            <g id="長方形_175" data-name="長方形 175" transform="translate(1004 4348)" fill="none" stroke="#212121" stroke-width="1">
              <rect width="17" height="30" stroke="none"/>
              <rect x="0.5" y="0.5" width="16" height="29" fill="none"/>
            </g>
            <g id="長方形_176" data-name="長方形 176" transform="translate(988 4348)" fill="none" stroke="#212121" stroke-width="1">
              <rect width="17" height="30" stroke="none"/>
              <rect x="0.5" y="0.5" width="16" height="29" fill="none"/>
            </g>
            <g id="長方形_177" data-name="長方形 177" transform="translate(972 4348)" fill="none" stroke="#212121" stroke-width="1">
              <rect width="17" height="30" stroke="none"/>
              <rect x="0.5" y="0.5" width="16" height="29" fill="none"/>
            </g>
            <g id="長方形_178" data-name="長方形 178" transform="translate(940 4348)" fill="none" stroke="#212121" stroke-width="1">
              <rect width="17" height="30" stroke="none"/>
              <rect x="0.5" y="0.5" width="16" height="29" fill="none"/>
            </g>
            <g id="長方形_179" data-name="長方形 179" transform="translate(940 4348)" fill="none" stroke="#212121" stroke-width="1">
              <rect width="17" height="30" stroke="none"/>
              <rect x="0.5" y="0.5" width="16" height="29" fill="none"/>
            </g>
            <g id="長方形_180" data-name="長方形 180" transform="translate(924 4348)" fill="none" stroke="#212121" stroke-width="1">
              <rect width="17" height="30" stroke="none"/>
              <rect x="0.5" y="0.5" width="16" height="29" fill="none"/>
            </g>
          </g>
          <g id="グループ_278" data-name="グループ 278" transform="translate(555 -97)">
            <rect id="長方形_114-15" data-name="長方形 114" width="8" height="221" transform="translate(530 4441) rotate(90)" fill="#212121"/>
          </g>
          <g id="グループ_279" data-name="グループ 279" transform="translate(-11)">
            <rect id="長方形_158" data-name="長方形 158" width="8" height="463" transform="translate(875 4344)" fill="#212121"/>
          </g>
          <g id="グループ_281" data-name="グループ 281">
            <g id="グループ_280" data-name="グループ 280" transform="translate(485 -65)">
              <rect id="長方形_114-16" data-name="長方形 114" width="8" height="361" transform="translate(670 4441) rotate(90)" fill="#212121"/>
            </g>
          </g>
          <g id="グループ_283" data-name="グループ 283" transform="translate(16)">
            <g id="グループ_282" data-name="グループ 282" transform="translate(-97 32)">
              <rect id="長方形_158-2" data-name="長方形 158" width="8" height="522" transform="translate(875 4344)" fill="#212121"/>
            </g>
          </g>
          <g id="グループ_284" data-name="グループ 284" transform="translate(485 358)">
            <rect id="長方形_114-17" data-name="長方形 114" width="8" height="105" transform="translate(414 4441) rotate(90)" fill="#212121"/>
          </g>
          <g id="グループ_288" data-name="グループ 288">
            <g id="グループ_285" data-name="グループ 285" transform="translate(0 518.5)">
              <g id="グループ_280-2" data-name="グループ 280" transform="translate(794 4376)">
                <rect id="長方形_114-18" data-name="長方形 114" width="8" height="357.329" transform="translate(357.329) rotate(90)" fill="#212121"/>
              </g>
            </g>
            <g id="グループ_286" data-name="グループ 286" transform="translate(632.297 52)">
              <rect id="長方形_114-19" data-name="長方形 114" width="8" height="213" transform="translate(522.703 4441) rotate(90)" fill="#212121"/>
            </g>
            <g id="グループ_287" data-name="グループ 287" transform="translate(273 32)">
              <rect id="長方形_158-3" data-name="長方形 158" width="8" height="619" transform="translate(875 4344)" fill="#212121"/>
            </g>
            <g id="グループ_292" data-name="グループ 292" transform="translate(65 40.212)">
              <rect id="長方形_158-4" data-name="長方形 158" width="8" height="511" transform="translate(875 4343.788)" fill="#212121"/>
            </g>
          </g>
          <g id="グループ_289" data-name="グループ 289" transform="translate(1 611)">
            <g id="グループ_280-3" data-name="グループ 280" transform="translate(581.747 -65)">
              <rect id="長方形_114-20" data-name="長方形 114" width="8" height="265" transform="translate(573.253 4441) rotate(90)" fill="#212121"/>
            </g>
            <rect id="長方形_164" data-name="長方形 164" width="8" height="133.478" transform="translate(1112.978 4376) rotate(90)" fill="#212121"/>
          </g>
          <g id="グループ_290" data-name="グループ 290" transform="translate(-172 402)">
            <g id="グループ_291" data-name="グループ 291" transform="translate(1063 4443)">
              <rect id="長方形_158-5" data-name="長方形 158" width="8" height="150" fill="#212121"/>
            </g>
          </g>
          <g id="グループ_293" data-name="グループ 293" transform="translate(485 358)">
            <rect id="長方形_114-21" data-name="長方形 114" width="8" height="105" transform="translate(414 4441) rotate(90)" fill="#212121"/>
          </g>
          <g id="グループ_294" data-name="グループ 294" transform="translate(485 138)">
            <rect id="長方形_114-22" data-name="長方形 114" width="8" height="78" transform="translate(387 4441) rotate(90)" fill="#212121"/>
          </g>
          <g id="グループ_295" data-name="グループ 295" transform="translate(485 52)">
            <rect id="長方形_114-23" data-name="長方形 114" width="8" height="78" transform="translate(387 4441) rotate(90)" fill="#212121"/>
          </g>
          <g id="グループ_296" data-name="グループ 296" transform="translate(485 -5)">
            <rect id="長方形_114-24" data-name="長方形 114" width="8" height="70" transform="translate(379 4441) rotate(90)" fill="#212121"/>
          </g>
          <g id="長方形_182" data-name="長方形 182" transform="translate(836 4807)" fill="none" stroke="#212121" stroke-width="1">
            <rect width="20" height="39" stroke="none"/>
            <rect x="0.5" y="0.5" width="19" height="38" fill="none"/>
          </g>
          <g id="長方形_183" data-name="長方形 183" transform="translate(855 4807)" fill="none" stroke="#212121" stroke-width="1">
            <rect width="20" height="39" stroke="none"/>
            <rect x="0.5" y="0.5" width="19" height="38" fill="none"/>
          </g>
          <g id="長方形_184" data-name="長方形 184" transform="translate(874 4807)" fill="none" stroke="#212121" stroke-width="1">
            <rect width="20" height="39" stroke="none"/>
            <rect x="0.5" y="0.5" width="19" height="38" fill="none"/>
          </g>
          <g id="長方形_185" data-name="長方形 185" transform="translate(855 4845)" fill="none" stroke="#212121" stroke-width="1">
            <rect width="20" height="39" stroke="none"/>
            <rect x="0.5" y="0.5" width="19" height="38" fill="none"/>
          </g>
          <g id="長方形_186" data-name="長方形 186" transform="translate(874 4845)" fill="none" stroke="#212121" stroke-width="1">
            <rect width="20" height="39" stroke="none"/>
            <rect x="0.5" y="0.5" width="19" height="38" fill="none"/>
          </g>
          <g id="長方形_187" data-name="長方形 187" transform="translate(836 4845)" fill="none" stroke="#212121" stroke-width="1">
            <rect width="20" height="39" stroke="none"/>
            <rect x="0.5" y="0.5" width="19" height="38" fill="none"/>
          </g>
          <g id="長方形_188" data-name="長方形 188" transform="translate(801 4883)" fill="none" stroke="#212121" stroke-width="1">
            <rect width="90" height="12" stroke="none"/>
            <rect x="0.5" y="0.5" width="89" height="11" fill="none"/>
          </g>
          <line id="線_48" data-name="線 48" x2="39" y2="23" transform="translate(797.5 4822)" fill="none" stroke="#212121" stroke-width="1"/>
          <line id="線_51" data-name="線 51" x2="22" y2="41" transform="translate(814.5 4804.5)" fill="none" stroke="#212121" stroke-width="1"/>
          <line id="線_49" data-name="線 49" x2="37" transform="translate(799.5 4845.521)" fill="none" stroke="#212121" stroke-width="1"/>
          <line id="線_50" data-name="線 50" y1="23" x2="39" transform="translate(798 4845)" fill="none" stroke="#212121" stroke-width="1"/>
          <line id="線_52" data-name="線 52" y1="39" x2="21" transform="translate(815 4845)" fill="none" stroke="#212121" stroke-width="1"/>
          <text id="トイレ_女_2" data-name="トイレ
（女）" transform="translate(833 4407)" fill="#212121" font-size="14" font-family="HiraginoSans-W6, Hiragino Sans"><tspan x="-21" y="0">トイレ</tspan><tspan y="0" font-family="Helvetica-Bold, Helvetica" font-weight="700"></tspan><tspan x="-21" y="17">（女）</tspan></text>
          <text id="トイレ_男_2" data-name="トイレ
（男）" transform="translate(833 4468)" fill="#212121" font-size="14" font-family="HiraginoSans-W6, Hiragino Sans"><tspan x="-21" y="0">トイレ</tspan><tspan y="0" font-family="Helvetica-Bold, Helvetica" font-weight="700"></tspan><tspan x="-21" y="17">（男）</tspan></text>
          <text id="和室F" transform="translate(1051 4447)" fill="#212121" font-size="16" font-family="HiraginoSans-W6, Hiragino Sans"><tspan x="-20.887" y="0">和室</tspan><tspan y="0" font-family="Helvetica-Bold, Helvetica" font-weight="700">F</tspan></text>
          <text id="法要室E" transform="translate(1048 4580)" fill="#212121" font-size="16" font-family="HiraginoSans-W6, Hiragino Sans"><tspan x="-29.336" y="0">法要室</tspan><tspan y="0" font-family="Helvetica-Bold, Helvetica" font-weight="700">E</tspan></text>
          <text id="法要室D" transform="translate(1048 4710)" fill="#212121" font-size="16" font-family="HiraginoSans-W6, Hiragino Sans"><tspan x="-29.777" y="0">法要室</tspan><tspan y="0" font-family="Helvetica-Bold, Helvetica" font-weight="700">D</tspan></text>
          <text id="実相霊廟_" data-name="実相霊廟Ⅱ" transform="translate(1048 4836)" fill="#212121" font-size="16" font-family="HiraginoSans-W6, Hiragino Sans"><tspan x="-36.445" y="0">実相霊廟</tspan><tspan y="0" font-family="Helvetica-Bold, Helvetica" font-weight="700">Ⅱ</tspan></text>
          <text id="寺院_控室" data-name="寺院
控室" transform="translate(833 4757)" fill="#212121" font-size="14" font-family="HiraginoSans-W6, Hiragino Sans"><tspan x="-14" y="0">寺院</tspan><tspan y="0" font-family="Helvetica-Bold, Helvetica" font-weight="700"></tspan><tspan x="-14" y="17">控室</tspan></text>
          <text id="実相霊廟" transform="translate(1020 4953)" fill="#212121" font-size="16" font-family="HiraginoSans-W6, Hiragino Sans"><tspan x="-32" y="0">実相霊廟</tspan></text>
          <text id="スタッフ_ルーム" data-name="スタッフ
ルーム" transform="translate(833 4655)" fill="#212121" font-size="14" font-family="HiraginoSans-W6, Hiragino Sans" letter-spacing="-0.05em"><tspan x="-26.6" y="0">スタッフ</tspan><tspan y="0" font-family="Helvetica-Bold, Helvetica" font-weight="700"></tspan><tspan x="-20.02" y="19">ルーム</tspan></text>
          <text id="配膳室-2" data-name="配膳室" transform="translate(833 4547)" fill="#212121" font-size="14" font-family="HiraginoSans-W6, Hiragino Sans"><tspan x="-21" y="0">配膳室</tspan></text>
        </g>
        <line id="線_53" data-name="線 53" x2="201" transform="translate(903.5 4667.5)" fill="none" stroke="#212121" stroke-width="1" stroke-dasharray="2 2"/>
        <line id="線_54" data-name="線 54" x2="201" transform="translate(903.5 4796.5)" fill="none" stroke="#212121" stroke-width="1" stroke-dasharray="2 2"/>
        <line id="線_55" data-name="線 55" x2="70" transform="translate(757.5 4750.5)" fill="none" stroke="#212121" stroke-width="1" stroke-dasharray="2 2"/>
      </g>
    </g>
  </g>
</svg>
