<svg xmlns="http://www.w3.org/2000/svg" width="23" height="19" viewBox="0 0 23 19">
  <path id="mail_FILL0_wght400_GRAD0_opsz24_1_" data-name="mail_FILL0_wght400_GRAD0_opsz24 (1)" d="M82.3-781a2.18,2.18,0,0,1-1.624-.7A2.325,2.325,0,0,1,80-783.375v-14.25a2.325,2.325,0,0,1,.676-1.677A2.18,2.18,0,0,1,82.3-800h18.4a2.18,2.18,0,0,1,1.624.7,2.325,2.325,0,0,1,.676,1.677v14.25a2.325,2.325,0,0,1-.676,1.677,2.18,2.18,0,0,1-1.624.7Zm9.2-8.312-9.2-5.937v11.875h18.4V-795.25Zm0-2.375,9.2-5.937H82.3Zm-9.2-3.562v0Z" transform="translate(-80 800)" fill="#fff"/>
</svg>
