<svg xmlns="http://www.w3.org/2000/svg" width="21" height="21" viewBox="0 0 21 21">
  <path id="call_FILL0_wght400_GRAD0_opsz24_3_" data-name="call_FILL0_wght400_GRAD0_opsz24 (3)" d="M139.775-819a17.513,17.513,0,0,1-7.2-1.59A21.552,21.552,0,0,1,126.1-825.1a21.552,21.552,0,0,1-4.506-6.475,17.512,17.512,0,0,1-1.59-7.2,1.187,1.187,0,0,1,.35-.875,1.187,1.187,0,0,1,.875-.35h4.725a1.085,1.085,0,0,1,.729.277,1.066,1.066,0,0,1,.379.656l.758,4.083a2.057,2.057,0,0,1-.029.787,1.227,1.227,0,0,1-.321.554l-2.829,2.858a14.106,14.106,0,0,0,1.385,2.085,20.525,20.525,0,0,0,1.765,1.94,20.522,20.522,0,0,0,1.9,1.677,18.453,18.453,0,0,0,2.1,1.415l2.742-2.742a1.634,1.634,0,0,1,.685-.394,1.879,1.879,0,0,1,.831-.073l4.025.817a1.351,1.351,0,0,1,.671.423,1.027,1.027,0,0,1,.262.685v4.725a1.187,1.187,0,0,1-.35.875A1.187,1.187,0,0,1,139.775-819Zm-16.246-14,1.925-1.925-.5-2.742h-2.6q.146,1.2.408,2.363A12.777,12.777,0,0,0,123.529-833Zm10.442,10.442a14.483,14.483,0,0,0,2.319.787,14.233,14.233,0,0,0,2.377.379v-2.567l-2.742-.554ZM123.529-833ZM133.971-822.558Z" transform="translate(-120 840)" fill="#fff"/>
</svg>
