<svg xmlns="http://www.w3.org/2000/svg" width="50.418" height="51.579" viewBox="0 0 50.418 51.579">
  <path id="inventory_FILL0_wght400_GRAD0_opsz24" d="M152.237-871.194l-10.96-10.961,3.611-3.61,7.35,7.35,14.571-14.571,3.61,3.61Zm14.184-25.6h-5.158v-12.895H156.1v7.737H130.316v-7.737h-5.158v36.1h15.474v5.158H125.158a4.966,4.966,0,0,1-3.643-1.515A4.967,4.967,0,0,1,120-873.579v-36.1a4.967,4.967,0,0,1,1.515-3.643,4.967,4.967,0,0,1,3.643-1.515h10.767a7.032,7.032,0,0,1,2.772-3.707A7.681,7.681,0,0,1,143.21-920a7.735,7.735,0,0,1,4.61,1.451,7.083,7.083,0,0,1,2.74,3.707h10.7a4.967,4.967,0,0,1,3.643,1.515,4.967,4.967,0,0,1,1.515,3.643Zm-23.21-12.895a2.5,2.5,0,0,0,1.837-.742,2.5,2.5,0,0,0,.741-1.837,2.5,2.5,0,0,0-.741-1.837,2.5,2.5,0,0,0-1.837-.741,2.5,2.5,0,0,0-1.837.741,2.5,2.5,0,0,0-.741,1.837,2.5,2.5,0,0,0,.741,1.837A2.5,2.5,0,0,0,143.21-909.684Z" transform="translate(-120 920)" fill="#3d603b"/>
</svg>
