<svg xmlns="http://www.w3.org/2000/svg" width="51.581" height="51.581" viewBox="0 0 51.581 51.581">
  <path id="clinical_notes_FILL0_wght400_GRAD0_opsz24" d="M156.107-806.472a7.461,7.461,0,0,1-5.48-2.257,7.461,7.461,0,0,1-2.257-5.48,7.462,7.462,0,0,1,2.257-5.481,7.462,7.462,0,0,1,5.48-2.257,7.462,7.462,0,0,1,5.48,2.257,7.462,7.462,0,0,1,2.257,5.481,7.461,7.461,0,0,1-2.257,5.48A7.461,7.461,0,0,1,156.107-806.472Zm0-5.158a2.5,2.5,0,0,0,1.838-.741,2.5,2.5,0,0,0,.741-1.838,2.5,2.5,0,0,0-.741-1.838,2.5,2.5,0,0,0-1.838-.741,2.5,2.5,0,0,0-1.838.741,2.5,2.5,0,0,0-.741,1.838,2.5,2.5,0,0,0,.741,1.838A2.5,2.5,0,0,0,156.107-811.63Zm-15.474,23.211V-795.9a5.276,5.276,0,0,1,.645-2.547,4.951,4.951,0,0,1,1.805-1.9,24.328,24.328,0,0,1,4.352-2.031,27.116,27.116,0,0,1,4.675-1.193l4,4.836,4-4.836a26.278,26.278,0,0,1,4.642,1.193,24.741,24.741,0,0,1,4.32,2.031,5.2,5.2,0,0,1,1.838,1.9,5.078,5.078,0,0,1,.677,2.547v7.479Zm5.094-5.158h7.931l-3.482-4.255a14.243,14.243,0,0,0-2.257.838q-1.1.516-2.192,1.1Zm12.831,0h7.866V-795.9a16.811,16.811,0,0,0-2.128-1.128,16.56,16.56,0,0,0-2.257-.806ZM153.657-793.577ZM158.557-793.577Zm-33.4,0a4.967,4.967,0,0,1-3.643-1.515A4.967,4.967,0,0,1,120-798.735v-36.107a4.967,4.967,0,0,1,1.515-3.643A4.967,4.967,0,0,1,125.158-840h36.107a4.967,4.967,0,0,1,3.643,1.515,4.967,4.967,0,0,1,1.515,3.643v12.9a24.185,24.185,0,0,0-2.257-2.45,6.152,6.152,0,0,0-2.9-1.547v-8.9H125.158v36.107h10.7a11.073,11.073,0,0,0-.29,1.419,10.485,10.485,0,0,0-.1,1.418v2.321Zm5.158-30.949H148.37a12.054,12.054,0,0,1,3.675-1.934,13.152,13.152,0,0,1,4.062-.645v-2.579H130.316Zm0,10.316h12.9a12.005,12.005,0,0,1,.29-2.644,14.893,14.893,0,0,1,.806-2.515H130.316Zm0,10.316h8.9a10.456,10.456,0,0,1,1.515-1.032q.806-.451,1.644-.838v-3.288H130.316Zm-5.158,5.158v0ZM156.107-814.209Z" transform="translate(-120 840)" fill="#3d603b"/>
</svg>
