<svg xmlns="http://www.w3.org/2000/svg" width="60.58" height="51.589" viewBox="0 0 60.58 51.589">
  <g id="グループ_334" data-name="グループ 334" transform="translate(-252.241 -1806)">
    <g id="グループ_333" data-name="グループ 333" transform="translate(257.547 1806)">
      <g id="長方形_203" data-name="長方形 203" transform="translate(0 36.85)" fill="none" stroke="#3d603b" stroke-width="5">
        <rect width="55.274" height="14.74" stroke="none"/>
        <rect x="2.5" y="2.5" width="50.274" height="9.74" fill="none"/>
      </g>
      <g id="長方形_204" data-name="長方形 204" transform="translate(8.291 27.637)" fill="none" stroke="#3d603b" stroke-width="5">
        <rect width="37.771" height="13.819" stroke="none"/>
        <rect x="2.5" y="2.5" width="32.771" height="8.819" fill="none"/>
      </g>
      <g id="長方形_205" data-name="長方形 205" transform="translate(16.582 0)" fill="none" stroke="#3d603b" stroke-width="5">
        <rect width="22.11" height="31.322" stroke="none"/>
        <rect x="2.5" y="2.5" width="17.11" height="26.322" fill="none"/>
      </g>
    </g>
    <path id="switch_access_shortcut_FILL0_wght400_GRAD0_opsz24" d="M330.15-851a15.412,15.412,0,0,1-7.377-5.728A15.259,15.259,0,0,1,320-865.645a15.305,15.305,0,0,1,1.305-6.253,15.877,15.877,0,0,1,3.7-5.2h-5V-880h10.15v10.15h-2.9v-5.365a13.105,13.105,0,0,0-3.208,4.332,12.392,12.392,0,0,0-1.142,5.238,12.479,12.479,0,0,0,1.957,6.8,12.524,12.524,0,0,0,5.293,4.695Z" transform="translate(-67.759 2688.009)" fill="#3d603b"/>
  </g>
</svg>
