<svg xmlns="http://www.w3.org/2000/svg" width="60.581" height="50.62" viewBox="0 0 60.581 50.62">
  <g id="グループ_335" data-name="グループ 335" transform="translate(-251 -1806)">
    <g id="グループ_333" data-name="グループ 333" transform="translate(251 1806)">
      <g id="長方形_203" data-name="長方形 203" transform="translate(0 36.446)" fill="none" stroke="#3d603b" stroke-width="5">
        <rect width="53.656" height="14.173" stroke="none"/>
        <rect x="2.5" y="2.5" width="48.656" height="9.173" fill="none"/>
      </g>
      <g id="長方形_204" data-name="長方形 204" transform="translate(8.099 26.322)" fill="none" stroke="#3d603b" stroke-width="5">
        <rect width="37.458" height="14.173" stroke="none"/>
        <rect x="2.5" y="2.5" width="32.458" height="9.173" fill="none"/>
      </g>
      <g id="長方形_205" data-name="長方形 205" transform="translate(16.198 0)" fill="none" stroke="#3d603b" stroke-width="5">
        <rect width="21.26" height="31.384" stroke="none"/>
        <rect x="2.5" y="2.5" width="16.26" height="26.384" fill="none"/>
      </g>
    </g>
    <path id="switch_access_shortcut_FILL0_wght400_GRAD0_opsz24" d="M9.895,28.27A15.024,15.024,0,0,1,2.7,22.687,14.875,14.875,0,0,1,0,13.994,14.92,14.92,0,0,1,1.272,7.9a15.479,15.479,0,0,1,3.6-5.071H0V0H9.895V9.895H7.068V4.665A12.777,12.777,0,0,0,3.94,8.887a12.376,12.376,0,0,0,.8,11.732A12.209,12.209,0,0,0,9.895,25.2Z" transform="translate(311.581 1834.27) rotate(180)" fill="#3d603b"/>
  </g>
</svg>
