<svg xmlns="http://www.w3.org/2000/svg" width="45.938" height="51.043" viewBox="0 0 45.938 51.043">
  <path id="contract_FILL0_wght400_GRAD0_opsz24" d="M127.656-828.957a7.384,7.384,0,0,1-5.423-2.233A7.383,7.383,0,0,1,120-836.614v-7.656h7.656V-880h38.282v43.386a7.383,7.383,0,0,1-2.233,5.423,7.384,7.384,0,0,1-5.423,2.233Zm30.626-5.1a2.469,2.469,0,0,0,1.818-.734,2.47,2.47,0,0,0,.734-1.818V-874.9H132.761v30.626H155.73v7.656a2.47,2.47,0,0,0,.734,1.818A2.469,2.469,0,0,0,158.282-834.062Zm-22.969-28.073v-5.1h22.969v5.1Zm0,7.656v-5.1h22.969v5.1Zm-7.656,20.417h22.969v-5.1H125.1v2.552a2.47,2.47,0,0,0,.734,1.818A2.469,2.469,0,0,0,127.656-834.062Zm0,0h0Z" transform="translate(-120 880)" fill="#3d603b"/>
</svg>
