<svg xmlns="http://www.w3.org/2000/svg" width="57.29" height="47.007" viewBox="0 0 57.29 47.007">
  <path id="history_edu_FILL0_wght400_GRAD0_opsz24" d="M79.1-752.993a5.658,5.658,0,0,1-4.15-1.726,5.658,5.658,0,0,1-1.726-4.15v-8.814h8.814v-6.61a14.385,14.385,0,0,1-4.884-1.138,12.911,12.911,0,0,1-4.223-2.975v-3.232H69.548L60-791.186a14.3,14.3,0,0,1,6.537-4.774,23.142,23.142,0,0,1,7.859-1.4,24.844,24.844,0,0,1,3.856.294,16.111,16.111,0,0,1,3.783,1.1V-800H117.29v38.193a8.5,8.5,0,0,1-2.571,6.243,8.5,8.5,0,0,1-6.243,2.571Zm8.814-14.69h17.628v5.876a2.843,2.843,0,0,0,.845,2.093,2.843,2.843,0,0,0,2.093.845,2.843,2.843,0,0,0,2.093-.845,2.843,2.843,0,0,0,.845-2.093v-32.317h-23.5v1.763l17.628,17.628v4.113h-4.113l-8.373-8.373-.588.588A16.879,16.879,0,0,1,90.3-776.57a9.682,9.682,0,0,1-2.387,1.249ZM72.046-787.514H78.8v6.317a5.546,5.546,0,0,0,1.836.808,8.8,8.8,0,0,0,1.983.22,8.561,8.561,0,0,0,3.048-.514,7.735,7.735,0,0,0,2.681-1.836l.588-.588-4.113-4.113a14.235,14.235,0,0,0-4.774-3.2A14.994,14.994,0,0,0,74.4-791.48a16.969,16.969,0,0,0-2.791.22,17.406,17.406,0,0,0-2.644.661Zm27.617,25.707H79.1v2.938H100.1a8.3,8.3,0,0,1-.331-1.4A10.4,10.4,0,0,1,99.662-761.807ZM79.1-758.869v0Z" transform="translate(-60 800)" fill="#3d603b"/>
</svg>
