<svg xmlns="http://www.w3.org/2000/svg" width="33" height="29" viewBox="0 0 33 29">
  <path id="directions_car_FILL0_wght400_GRAD0_opsz24" d="M125.5-734.625v1.812a1.744,1.744,0,0,1-.527,1.292,1.784,1.784,0,0,1-1.306.521h-1.833a1.784,1.784,0,0,1-1.306-.521,1.744,1.744,0,0,1-.527-1.292v-14.5l3.85-10.875a2.572,2.572,0,0,1,.985-1.314,2.69,2.69,0,0,1,1.581-.5h20.167a2.69,2.69,0,0,1,1.581.5,2.572,2.572,0,0,1,.985,1.314L153-747.312v14.5a1.744,1.744,0,0,1-.527,1.292,1.785,1.785,0,0,1-1.306.521h-1.833a1.785,1.785,0,0,1-1.306-.521,1.744,1.744,0,0,1-.527-1.292v-1.812Zm-.367-16.312h22.733l-1.925-5.437H127.058Zm-1.467,3.625v0Zm4.583,7.25a2.668,2.668,0,0,0,1.948-.793,2.607,2.607,0,0,0,.8-1.926,2.607,2.607,0,0,0-.8-1.926,2.668,2.668,0,0,0-1.948-.793,2.668,2.668,0,0,0-1.948.793,2.607,2.607,0,0,0-.8,1.926,2.607,2.607,0,0,0,.8,1.926A2.668,2.668,0,0,0,128.25-740.062Zm16.5,0a2.668,2.668,0,0,0,1.948-.793,2.607,2.607,0,0,0,.8-1.926,2.607,2.607,0,0,0-.8-1.926,2.668,2.668,0,0,0-1.948-.793,2.668,2.668,0,0,0-1.948.793,2.607,2.607,0,0,0-.8,1.926,2.607,2.607,0,0,0,.8,1.926A2.668,2.668,0,0,0,144.75-740.062Zm-21.083,1.812h25.667v-9.062H123.667Z" transform="translate(-120 760)" fill="#3d603b"/>
</svg>
