<svg xmlns="http://www.w3.org/2000/svg" width="30" height="36" viewBox="0 0 30 36">
  <path id="train_FILL0_wght400_GRAD0_opsz24" d="M160-854.421v-18a5.912,5.912,0,0,1,1.289-4,8.108,8.108,0,0,1,3.4-2.274,19.118,19.118,0,0,1,4.8-1.042Q172.188-880,175-880q3.094,0,5.836.261a18.194,18.194,0,0,1,4.781,1.042,7.285,7.285,0,0,1,3.211,2.274,6.306,6.306,0,0,1,1.172,4v18a6.442,6.442,0,0,1-1.9,4.713,6.307,6.307,0,0,1-4.664,1.918l2.812,2.842V-844H182.5l-3.75-3.789h-7.5L167.5-844h-3.75v-.947l2.813-2.842a6.307,6.307,0,0,1-4.664-1.918A6.442,6.442,0,0,1,160-854.421Zm15-21.789a31.968,31.968,0,0,0-7.266.592,8.451,8.451,0,0,0-3.141,1.3h21a5.97,5.97,0,0,0-3.023-1.35A36.944,36.944,0,0,0,175-876.21Zm-11.25,11.368h9.375v-5.684H163.75Zm19.688,3.789h0Zm-6.562-3.789h9.375v-5.684h-9.375Zm-8.437,11.368a2.717,2.717,0,0,0,2.016-.805,2.776,2.776,0,0,0,.8-2.037,2.776,2.776,0,0,0-.8-2.037,2.717,2.717,0,0,0-2.016-.805,2.717,2.717,0,0,0-2.016.805,2.776,2.776,0,0,0-.8,2.037,2.776,2.776,0,0,0,.8,2.037A2.717,2.717,0,0,0,168.438-853.474Zm13.125,0a2.717,2.717,0,0,0,2.016-.805,2.776,2.776,0,0,0,.8-2.037,2.776,2.776,0,0,0-.8-2.037,2.717,2.717,0,0,0-2.016-.805,2.717,2.717,0,0,0-2.016.805,2.776,2.776,0,0,0-.8,2.037,2.776,2.776,0,0,0,.8,2.037A2.717,2.717,0,0,0,181.563-853.474Zm-15,1.895h16.875a2.717,2.717,0,0,0,2.016-.805,2.776,2.776,0,0,0,.8-2.037v-6.632h-22.5v6.632a2.776,2.776,0,0,0,.8,2.037A2.717,2.717,0,0,0,166.562-851.579ZM175-874.316h0Z" transform="translate(-160 880)" fill="#3d603b"/>
</svg>
